999
Created by JSCAD
  0
SECTION
  2
HEADER
  9
$ACADVER
  1
AC1027
  9
$ACADMAINTVER
 70
8
  9
$DWGCODEPAGE
  3
ANSI_1252
  9
$LASTSAVEDBY
  1
unknown
  9
$REQUIREDVERSIONS
160
0
  9
$INSBASE
 10
0.0
 20
0.0
 30
0.0
  9
$EXTMIN
 10
1e+20
 20
1e+20
 30
1e+20
  9
$EXTMAX
 10
-1e+20
 20
-1e+20
 30
-1e+20
  9
$LIMMIN
 10
0.0
 20
0.0
  9
$LIMMAX
 10
12.0
 20
9.0
  9
$ORTHOMODE
 70
0
  9
$REGENMODE
 70
1
  9
$FILLMODE
 70
1
  9
$QTEXTMODE
 70
0
  9
$MIRRTEXT
 70
0
  9
$LTSCALE
 40
1.0
  9
$ATTMODE
 70
1
  9
$TEXTSIZE
 40
0.2
  9
$TRACEWID
 40
0.05
  9
$TEXTSTYLE
  7
Notes
  9
$CLAYER
  8
0
  9
$CELTYPE
  6
ByLayer
  9
$CECOLOR
 62
256
  9
$CELTSCALE
 40
1.0
  9
$DISPSILH
 70
0
  9
$DIMSCALE
 40
1.0
  9
$DIMASZ
 40
3.0
  9
$DIMEXO
 40
1.5
  9
$DIMDLI
 40
6.0
  9
$DIMRND
 40
0.0
  9
$DIMDLE
 40
0.0
  9
$DIMEXE
 40
3.0
  9
$DIMTP
 40
0.0
  9
$DIMTM
 40
0.0
  9
$DIMTXT
 40
3.0
  9
$DIMCEN
 40
3.0
  9
$DIMTSZ
 40
0.0
  9
$DIMTOL
 70
0
  9
$DIMLIM
 70
0
  9
$DIMTIH
 70
0
  9
$DIMTOH
 70
0
  9
$DIMSE1
 70
0
  9
$DIMSE2
 70
0
  9
$DIMTAD
 70
1
  9
$DIMZIN
 70
3
  9
$DIMBLK
  1

  9
$DIMASO
 70
1
  9
$DIMSHO
 70
1
  9
$DIMPOST
  1

  9
$DIMAPOST
  1

  9
$DIMALT
 70
0
  9
$DIMALTD
 70
2
  9
$DIMALTF
 40
25.4
  9
$DIMLFAC
 40
1.0
  9
$DIMTOFL
 70
0
  9
$DIMTVP
 40
0.0
  9
$DIMTIX
 70
0
  9
$DIMSOXD
 70
0
  9
$DIMSAH
 70
0
  9
$DIMBLK1
  1

  9
$DIMBLK2
  1

  9
$DIMSTYLE
  2
Civil-Metric
  9
$DIMCLRD
 70
0
  9
$DIMCLRE
 70
0
  9
$DIMCLRT
 70
0
  9
$DIMTFAC
 40
1.0
  9
$DIMGAP
 40
2.0
  9
$DIMJUST
 70
0
  9
$DIMSD1
 70
0
  9
$DIMSD2
 70
0
  9
$DIMTOLJ
 70
1
  9
$DIMTZIN
 70
0
  9
$DIMALTZ
 70
0
  9
$DIMALTTZ
 70
0
  9
$DIMUPT
 70
0
  9
$DIMDEC
 70
2
  9
$DIMTDEC
 70
2
  9
$DIMALTU
 70
2
  9
$DIMALTTD
 70
2
  9
$DIMTXSTY
  7
Standard
  9
$DIMAUNIT
 70
0
  9
$DIMADEC
 70
2
  9
$DIMALTRND
 40
0.0
  9
$DIMAZIN
 70
2
  9
$DIMDSEP
 70
46
  9
$DIMATFIT
 70
3
  9
$DIMFRAC
 70
1
  9
$DIMLDRBLK
  1

  9
$DIMLUNIT
 70
2
  9
$DIMLWD
 70
-2
  9
$DIMLWE
 70
-2
  9
$DIMTMOVE
 70
0
  9
$DIMFXL
 40
1.0
  9
$DIMFXLON
 70
0
  9
$DIMJOGANG
 40
0.785398163397
  9
$DIMTFILL
 70
0
  9
$DIMTFILLCLR
 70
0
  9
$DIMARCSYM
 70
0
  9
$DIMLTYPE
  6

  9
$DIMLTEX1
  6

  9
$DIMLTEX2
  6

  9
$DIMTXTDIRECTION
 70
0
  9
$LUNITS
 70
2
  9
$LUPREC
 70
4
  9
$SKETCHINC
 40
0.1
  9
$FILLETRAD
 40
0.0
  9
$AUNITS
 70
4
  9
$AUPREC
 70
5
  9
$MENU
  1
.
  9
$ELEVATION
 40
0.0
  9
$PELEVATION
 40
0.0
  9
$THICKNESS
 40
0.0
  9
$LIMCHECK
 70
0
  9
$CHAMFERA
 40
0.0
  9
$CHAMFERB
 40
0.0
  9
$CHAMFERC
 40
0.0
  9
$CHAMFERD
 40
0.0
  9
$SKPOLY
 70
0
  9
$TDCREATE
 40
2457986.69756
  9
$TDUCREATE
 40
2455631.2632
  9
$TDUPDATE
 40
2457986.69756
  9
$TDUUPDATE
 40
2456436.43179
  9
$TDINDWG
 40
0.0003490741
  9
$TDUSRTIMER
 40
0.0003487153
  9
$USRTIMER
 70
1
  9
$ANGBASE
 50
0.0
  9
$ANGDIR
 70
0
  9
$PDMODE
 70
0
  9
$PDSIZE
 40
0.0
  9
$PLINEWID
 40
0.0
  9
$SPLFRAME
 70
0
  9
$SPLINETYPE
 70
6
  9
$SPLINESEGS
 70
8
  9
$HANDSEED
  5
5C7
  9
$SURFTAB1
 70
6
  9
$SURFTAB2
 70
6
  9
$SURFTYPE
 70
6
  9
$SURFU
 70
6
  9
$SURFV
 70
6
  9
$UCSBASE
  2

  9
$UCSNAME
  2

  9
$UCSORG
 10
0.0
 20
0.0
 30
0.0
  9
$UCSXDIR
 10
1.0
 20
0.0
 30
0.0
  9
$UCSYDIR
 10
0.0
 20
1.0
 30
0.0
  9
$UCSORTHOREF
  2

  9
$UCSORTHOVIEW
 70
0
  9
$UCSORGTOP
 10
0.0
 20
0.0
 30
0.0
  9
$UCSORGBOTTOM
 10
0.0
 20
0.0
 30
0.0
  9
$UCSORGLEFT
 10
0.0
 20
0.0
 30
0.0
  9
$UCSORGRIGHT
 10
0.0
 20
0.0
 30
0.0
  9
$UCSORGFRONT
 10
0.0
 20
0.0
 30
0.0
  9
$UCSORGBACK
 10
0.0
 20
0.0
 30
0.0
  9
$PUCSBASE
  2

  9
$PUCSNAME
  2

  9
$PUCSORG
 10
0.0
 20
0.0
 30
0.0
  9
$PUCSXDIR
 10
1.0
 20
0.0
 30
0.0
  9
$PUCSYDIR
 10
0.0
 20
1.0
 30
0.0
  9
$PUCSORTHOREF
  2

  9
$PUCSORTHOVIEW
 70
0
  9
$PUCSORGTOP
 10
0.0
 20
0.0
 30
0.0
  9
$PUCSORGBOTTOM
 10
0.0
 20
0.0
 30
0.0
  9
$PUCSORGLEFT
 10
0.0
 20
0.0
 30
0.0
  9
$PUCSORGRIGHT
 10
0.0
 20
0.0
 30
0.0
  9
$PUCSORGFRONT
 10
0.0
 20
0.0
 30
0.0
  9
$PUCSORGBACK
 10
0.0
 20
0.0
 30
0.0
  9
$USERI1
 70
0
  9
$USERI2
 70
0
  9
$USERI3
 70
0
  9
$USERI4
 70
0
  9
$USERI5
 70
0
  9
$USERR1
 40
0.0
  9
$USERR2
 40
0.0
  9
$USERR3
 40
0.0
  9
$USERR4
 40
0.0
  9
$USERR5
 40
0.0
  9
$WORLDVIEW
 70
1
  9
$SHADEDGE
 70
3
  9
$SHADEDIF
 70
70
  9
$TILEMODE
 70
1
  9
$MAXACTVP
 70
64
  9
$PINSBASE
 10
0.0
 20
0.0
 30
0.0
  9
$PLIMCHECK
 70
0
  9
$PEXTMIN
 10
0.628866766397
 20
0.799999952316
 30
0.0
  9
$PEXTMAX
 10
9.02886638493
 20
7.19999957085
 30
0.0
  9
$PLIMMIN
 10
-0.700541819174
 20
-0.228100386192
  9
$PLIMMAX
 10
10.2994579405
 20
8.27189937351
  9
$UNITMODE
 70
0
  9
$VISRETAIN
 70
1
  9
$PLINEGEN
 70
0
  9
$PSLTSCALE
 70
1
  9
$TREEDEPTH
 70
3020
  9
$CMLSTYLE
  2
Standard
  9
$CMLJUST
 70
0
  9
$CMLSCALE
 40
1.0
  9
$PROXYGRAPHICS
 70
1
  9
$MEASUREMENT
 70
1
  9
$CELWEIGHT
370
-1
  9
$ENDCAPS
280
0
  9
$JOINSTYLE
280
0
  9
$LWDISPLAY
290
0
  9
$INSUNITS
 70
4
  9
$HYPERLINKBASE
  1

  9
$STYLESHEET
  1

  9
$XEDIT
290
1
  9
$CEPSNTYPE
380
0
  9
$PSTYLEMODE
290
1
  9
$FINGERPRINTGUID
  2
{39DB1BDD-BC6C-46D3-A333-DFCC0DC4782D}
  9
$VERSIONGUID
  2
{69EEBB2D-7039-498F-9366-3F994E4A07E7}
  9
$EXTNAMES
290
1
  9
$PSVPSCALE
 40
0.0
  9
$OLESTARTUP
290
0
  9
$SORTENTS
280
127
  9
$INDEXCTL
280
0
  9
$HIDETEXT
280
1
  9
$XCLIPFRAME
280
0
  9
$HALOGAP
280
0
  9
$OBSCOLOR
 70
257
  9
$OBSLTYPE
280
0
  9
$INTERSECTIONDISPLAY
280
0
  9
$INTERSECTIONCOLOR
 70
257
  9
$DIMASSOC
280
2
  9
$PROJECTNAME
  1

  9
$CAMERADISPLAY
290
0
  9
$LENSLENGTH
 40
50.0
  9
$CAMERAHEIGHT
 40
0.0
  9
$STEPSPERSEC
 40
2.0
  9
$STEPSIZE
 40
6.0
  9
$3DDWFPREC
 40
2.0
  9
$PSOLWIDTH
 40
0.25
  9
$PSOLHEIGHT
 40
4.0
  9
$LOFTANG1
 40
1.57079632679
  9
$LOFTANG2
 40
1.57079632679
  9
$LOFTMAG1
 40
0.0
  9
$LOFTMAG2
 40
0.0
  9
$LOFTPARAM
 70
7
  9
$LOFTNORMALS
280
1
  9
$LATITUDE
 40
37.795
  9
$LONGITUDE
 40
-122.394
  9
$NORTHDIRECTION
 40
0.0
  9
$TIMEZONE
 70
-8000
  9
$LIGHTGLYPHDISPLAY
280
1
  9
$TILEMODELIGHTSYNCH
280
1
  9
$CMATERIAL
347
96
  9
$SOLIDHIST
280
1
  9
$SHOWHIST
280
1
  9
$DWFFRAME
280
2
  9
$DGNFRAME
280
0
  9
$REALWORLDSCALE
290
1
  9
$INTERFERECOLOR
 62
1
  9
$INTERFEREOBJVS
345
A3
  9
$INTERFEREVPVS
346
A0
  9
$CSHADOW
280
0
  9
$SHADOWPLANELOCATION
 40
0.0
  0
ENDSEC
  0
SECTION
  2
CLASSES
  0
CLASS
  1
ACDBDICTIONARYWDFLT
  2
AcDbDictionaryWithDefault
  3
ObjectDBX Classes
 90
0
 91
1
280
0
281
0
  0
CLASS
  1
DICTIONARYVAR
  2
AcDbDictionaryVar
  3
ObjectDBX Classes
 90
0
 91
15
280
0
281
0
  0
CLASS
  1
TABLESTYLE
  2
AcDbTableStyle
  3
ObjectDBX Classes
 90
4095
 91
1
280
0
281
0
  0
CLASS
  1
MATERIAL
  2
AcDbMaterial
  3
ObjectDBX Classes
 90
1153
 91
3
280
0
281
0
  0
CLASS
  1
VISUALSTYLE
  2
AcDbVisualStyle
  3
ObjectDBX Classes
 90
4095
 91
26
280
0
281
0
  0
CLASS
  1
SCALE
  2
AcDbScale
  3
ObjectDBX Classes
 90
1153
 91
17
280
0
281
0
  0
CLASS
  1
MLEADERSTYLE
  2
AcDbMLeaderStyle
  3
ACDB_MLEADERSTYLE_CLASS
 90
4095
 91
3
280
0
281
0
  0
CLASS
  1
CELLSTYLEMAP
  2
AcDbCellStyleMap
  3
ObjectDBX Classes
 90
1152
 91
2
280
0
281
0
  0
CLASS
  1
EXACXREFPANELOBJECT
  2
ExAcXREFPanelObject
  3
EXAC_ESW
 90
1025
 91
0
280
0
281
0
  0
CLASS
  1
NPOCOLLECTION
  2
AcDbImpNonPersistentObjectsCollection
  3
ObjectDBX Classes
 90
1153
 91
0
280
0
281
0
  0
CLASS
  1
LAYER_INDEX
  2
AcDbLayerIndex
  3
ObjectDBX Classes
 90
0
 91
0
280
0
281
0
  0
CLASS
  1
SPATIAL_INDEX
  2
AcDbSpatialIndex
  3
ObjectDBX Classes
 90
0
 91
0
280
0
281
0
  0
CLASS
  1
IDBUFFER
  2
AcDbIdBuffer
  3
ObjectDBX Classes
 90
0
 91
0
280
0
281
0
  0
CLASS
  1
DIMASSOC
  2
AcDbDimAssoc
  3
"AcDbDimAssoc|Product Desc:     AcDim ARX App For Dimension|Company:          Autodesk, Inc.|WEB Address:      www.autodesk.com"
 90
0
 91
0
280
0
281
0
  0
CLASS
  1
ACDBSECTIONVIEWSTYLE
  2
AcDbSectionViewStyle
  3
ObjectDBX Classes
 90
1025
 91
1
280
0
281
0
  0
CLASS
  1
ACDBDETAILVIEWSTYLE
  2
AcDbDetailViewStyle
  3
ObjectDBX Classes
 90
1025
 91
1
280
0
281
0
  0
CLASS
  1
IMAGEDEF
  2
AcDbRasterImageDef
  3
ISM
 90
0
 91
1
280
0
281
0
  0
CLASS
  1
RASTERVARIABLES
  2
AcDbRasterVariables
  3
ISM
 90
0
 91
1
280
0
281
0
  0
CLASS
  1
IMAGEDEF_REACTOR
  2
AcDbRasterImageDefReactor
  3
ISM
 90
1
 91
1
280
0
281
0
  0
CLASS
  1
IMAGE
  2
AcDbRasterImage
  3
ISM
 90
2175
 91
1
280
0
281
1
  0
CLASS
  1
PDFDEFINITION
  2
AcDbPdfDefinition
  3
ObjectDBX Classes
 90
1153
 91
1
280
0
281
0
  0
CLASS
  1
PDFUNDERLAY
  2
AcDbPdfReference
  3
ObjectDBX Classes
 90
4095
 91
1
280
0
281
1
  0
CLASS
  1
DWFDEFINITION
  2
AcDbDwfDefinition
  3
ObjectDBX Classes
 90
1153
 91
2
280
0
281
0
  0
CLASS
  1
DWFUNDERLAY
  2
AcDbDwfReference
  3
ObjectDBX Classes
 90
1153
 91
1
280
0
281
1
  0
CLASS
  1
DGNDEFINITION
  2
AcDbDgnDefinition
  3
ObjectDBX Classes
 90
1153
 91
2
280
0
281
0
  0
CLASS
  1
DGNUNDERLAY
  2
AcDbDgnReference
  3
ObjectDBX Classes
 90
1153
 91
1
280
0
281
1
  0
ENDSEC
  0
SECTION
  2
TABLES
  0
TABLE
  2
VPORT
  5
8
330
0
100
AcDbSymbolTable
 70
0
  0
ENDTAB
  0
TABLE
  2
LTYPE
  5
5F
330
0
100
AcDbSymbolTable
 70
7
  0
LTYPE
  5
14
330
5F
100
AcDbSymbolTableRecord
100
AcDbLinetypeTableRecord
  2
ByBlock
 70
0
  3

 72
65
 73
0
 40
0.0
  0
LTYPE
  5
15
330
5F
100
AcDbSymbolTableRecord
100
AcDbLinetypeTableRecord
  2
ByLayer
 70
0
  3

 72
65
 73
0
 40
0.0
  0
LTYPE
  5
16
330
5F
100
AcDbSymbolTableRecord
100
AcDbLinetypeTableRecord
  2
Continuous
 70
0
  3
Solid line
 72
65
 73
0
 40
0.0
  0
LTYPE
  5
1B1
330
5F
100
AcDbSymbolTableRecord
100
AcDbLinetypeTableRecord
  2
CENTER
 70
0
  3
Center ____ _ ____ _ ____ _ ____ _ ____ _ ____
 72
65
 73
4
 40
2.0
 49
1.25
 74
0
 49
-0.25
 74
0
 49
0.25
 74
0
 49
-0.25
 74
0
  0
LTYPE
  5
1B2
330
5F
100
AcDbSymbolTableRecord
100
AcDbLinetypeTableRecord
  2
DASHED
 70
0
  3
Dashed __ __ __ __ __ __ __ __ __ __ __ __ __ _
 72
65
 73
2
 40
0.75
 49
0.5
 74
0
 49
-0.25
 74
0
  0
LTYPE
  5
1B3
330
5F
100
AcDbSymbolTableRecord
100
AcDbLinetypeTableRecord
  2
PHANTOM
 70
0
  3
Phantom ______  __  __  ______  __  __  ______
 72
65
 73
6
 40
2.5
 49
1.25
 74
0
 49
-0.25
 74
0
 49
0.25
 74
0
 49
-0.25
 74
0
 49
0.25
 74
0
 49
-0.25
 74
0
  0
LTYPE
  5
39E
330
5F
100
AcDbSymbolTableRecord
100
AcDbLinetypeTableRecord
  2
HIDDEN
 70
0
  3
Hidden __ __ __ __ __ __ __ __ __ __ __ __ __ __
 72
65
 73
2
 40
9.525
 49
6.35
 74
0
 49
-3.175
 74
0
  0
ENDTAB
  0
TABLE
  2
LAYER
  5
2
330
0
100
AcDbSymbolTable
 70
3
  0
LAYER
  5
10
330
2
100
AcDbSymbolTableRecord
100
AcDbLayerTableRecord
  2
0
 70
0
  6
Continuous
370
-3
390
F
347
98
348
0
  0
LAYER
  5
1B4
330
2
100
AcDbSymbolTableRecord
100
AcDbLayerTableRecord
  2
View Port
 70
0
  6
Continuous
290
0
370
-3
390
F
347
98
348
0
  0
LAYER
  5
21D
330
2
100
AcDbSymbolTableRecord
100
AcDbLayerTableRecord
  2
Defpoints
 70
0
  6
Continuous
290
0
370
-3
390
F
347
98
348
0
  0
ENDTAB
  0
TABLE
  2
STYLE
  5
3
330
0
100
AcDbSymbolTable
 70
3
  0
STYLE
  5
11
330
3
100
AcDbSymbolTableRecord
100
AcDbTextStyleTableRecord
  2
Standard
 70
0
 40
0.0
 41
1.0
 50
0.0
 71
0
 42
0.2
  3
arial.ttf
  4

  0
STYLE
  5
DC
330
3
100
AcDbSymbolTableRecord
100
AcDbTextStyleTableRecord
  2
Annotative
 70
0
 40
0.0
 41
1.0
 50
0.0
 71
0
 42
0.2
  3
arial.ttf
  4

  0
STYLE
  5
178
330
3
100
AcDbSymbolTableRecord
100
AcDbTextStyleTableRecord
  2
Notes
 70
0
 40
3.0
 41
1.0
 50
0.0
 71
0
 42
0.2
  3
arial.ttf
  4

  0
ENDTAB
  0
TABLE
  2
VIEW
  5
6
330
0
100
AcDbSymbolTable
 70
0
  0
ENDTAB
  0
TABLE
  2
UCS
  5
7
330
0
100
AcDbSymbolTable
 70
0
  0
ENDTAB
  0
TABLE
  2
APPID
  5
9
330
0
100
AcDbSymbolTable
 70
12
  0
APPID
  5
12
330
9
100
AcDbSymbolTableRecord
100
AcDbRegAppTableRecord
  2
ACAD
 70
0
  0
APPID
  5
DD
330
9
100
AcDbSymbolTableRecord
100
AcDbRegAppTableRecord
  2
AcadAnnoPO
 70
0
  0
APPID
  5
DE
330
9
100
AcDbSymbolTableRecord
100
AcDbRegAppTableRecord
  2
AcadAnnotative
 70
0
  0
APPID
  5
DF
330
9
100
AcDbSymbolTableRecord
100
AcDbRegAppTableRecord
  2
ACAD_DSTYLE_DIMJAG
 70
0
  0
APPID
  5
E0
330
9
100
AcDbSymbolTableRecord
100
AcDbRegAppTableRecord
  2
ACAD_DSTYLE_DIMTALN
 70
0
  0
APPID
  5
107
330
9
100
AcDbSymbolTableRecord
100
AcDbRegAppTableRecord
  2
ACAD_MLEADERVER
 70
0
  0
APPID
  5
1B5
330
9
100
AcDbSymbolTableRecord
100
AcDbRegAppTableRecord
  2
AcAecLayerStandard
 70
0
  0
APPID
  5
1BA
330
9
100
AcDbSymbolTableRecord
100
AcDbRegAppTableRecord
  2
ACAD_EXEMPT_FROM_CAD_STANDARDS
 70
0
  0
APPID
  5
237
330
9
100
AcDbSymbolTableRecord
100
AcDbRegAppTableRecord
  2
ACAD_DSTYLE_DIMBREAK
 70
0
  0
APPID
  5
28E
330
9
100
AcDbSymbolTableRecord
100
AcDbRegAppTableRecord
  2
ACAD_PSEXT
 70
0
  0
APPID
  5
4B0
330
9
100
AcDbSymbolTableRecord
100
AcDbRegAppTableRecord
  2
ACAD_NAV_VCDISPLAY
 70
0
  0
APPID
  5
4E3
330
9
100
AcDbSymbolTableRecord
100
AcDbRegAppTableRecord
  2
HATCHBACKGROUNDCOLOR
 70
0
  0
ENDTAB
  0
TABLE
  2
DIMSTYLE
  5
A
330
0
100
AcDbSymbolTable
 70
3
100
AcDbDimStyleTable
 71
3
340
242
340
27
340
E1
  0
DIMSTYLE
105
27
330
A
100
AcDbSymbolTableRecord
100
AcDbDimStyleTableRecord
  2
Standard
 70
0
 41
3.0
 42
2.0
 43
9.0
 44
5.0
140
3.0
141
2.0
147
2.0
340
11
1001
ACAD_DSTYLE_DIMJAG
1070
388
1040
38.0
1001
ACAD_DSTYLE_DIMBREAK
1070
391
1040
90.0
1001
ACAD_DSTYLE_DIMTALN
1070
392
1070
0
  0
DIMSTYLE
105
E1
330
A
100
AcDbSymbolTableRecord
100
AcDbDimStyleTableRecord
  2
Annotative
 70
0
 40
0.0
 41
3.0
 42
2.5
 43
10.0
 44
5.0
140
3.0
141
2.0
147
2.0
340
11
1001
AcadAnnotative
1000
AnnotativeData
1002
{
1070
1
1070
1
1002
}
1001
ACAD_DSTYLE_DIMJAG
1070
388
1040
38.0
1001
ACAD_DSTYLE_DIMBREAK
1070
391
1040
90.0
1001
ACAD_DSTYLE_DIMTALN
1070
392
1070
0
  0
DIMSTYLE
105
242
330
A
100
AcDbSymbolTableRecord
100
AcDbDimStyleTableRecord
  2
Civil-Metric
 70
0
 41
3.0
 42
1.5
 43
6.0
 44
3.0
 73
0
 74
0
 77
1
 78
3
 79
2
140
3.0
141
3.0
147
2.0
179
2
271
2
272
2
276
1
340
11
1001
ACAD_DSTYLE_DIMBREAK
1070
391
1040
3.0
1001
ACAD_DSTYLE_DIMJAG
1070
388
1040
38.0
1001
ACAD_DSTYLE_DIMTALN
1070
392
1070
0
  0
ENDTAB
  0
TABLE
  2
BLOCK_RECORD
  5
1
330
0
100
AcDbSymbolTable
 70
4
  0
BLOCK_RECORD
  5
1F
330
1
100
AcDbSymbolTableRecord
100
AcDbBlockTableRecord
  2
*Model_Space
340
530
 70
0
280
1
281
0
  0
BLOCK_RECORD
  5
58
330
1
100
AcDbSymbolTableRecord
100
AcDbBlockTableRecord
  2
*Paper_Space
340
531
 70
0
280
1
281
0
  0
BLOCK_RECORD
  5
238
330
1
100
AcDbSymbolTableRecord
100
AcDbBlockTableRecord
  2
_ArchTick
340
0
 70
0
280
1
281
0
  0
BLOCK_RECORD
  5
23C
330
1
100
AcDbSymbolTableRecord
100
AcDbBlockTableRecord
  2
_Open30
340
0
 70
0
280
1
281
0
  0
ENDTAB
  0
ENDSEC
  0
SECTION
  2
BLOCKS
  0
BLOCK
  5
23A
330
238
100
AcDbEntity
  8
0
100
AcDbBlockBegin
  2
_ArchTick
 70
0
 10
0.0
 20
0.0
 30
0.0
  3
_ArchTick
  1

  0
ENDBLK
  5
23B
330
238
100
AcDbEntity
  8
0
100
AcDbBlockEnd
  0
BLOCK
  5
20
330
1F
100
AcDbEntity
  8
0
100
AcDbBlockBegin
  2
*Model_Space
 70
0
 10
0.0
 20
0.0
 30
0.0
  3
*Model_Space
  1

  0
ENDBLK
  5
21
330
1F
100
AcDbEntity
  8
0
100
AcDbBlockEnd
  0
BLOCK
  5
5A
330
58
100
AcDbEntity
 67
1
  8
0
100
AcDbBlockBegin
  2
*Paper_Space
 70
0
 10
0.0
 20
0.0
 30
0.0
  3
*Paper_Space
  1

  0
ENDBLK
  5
5B
330
58
100
AcDbEntity
 67
1
  8
0
100
AcDbBlockEnd
  0
BLOCK
  5
240
330
23C
100
AcDbEntity
  8
0
100
AcDbBlockBegin
  2
_Open30
 70
0
 10
0.0
 20
0.0
 30
0.0
  3
_Open30
  1

  0
ENDBLK
  5
241
330
23C
100
AcDbEntity
  8
0
100
AcDbBlockEnd
  0
ENDSEC
  0
SECTION
  2
ENTITIES
  0
LWPOLYLINE
  5
CAD00001
  100
AcDbEntity
  3
CAD00001
  8
0
  67
0
  62
250
  100
AcDbPolyline
  90
79
  70
1
  10
15
  20
1.5
  10
15
  20
-1.5
  10
23
  20
-1.5
  10
23
  20
1.5
  10
31
  20
1.5
  10
31
  20
-1.5
  10
39
  20
-1.5
  10
39
  20
1.5
  10
47
  20
1.5
  10
47
  20
-1.5
  10
55
  20
-1.5
  10
55
  20
1.5
  10
63
  20
1.5
  10
63
  20
-1.5
  10
71
  20
-1.5
  10
71
  20
1.5
  10
79
  20
1.5
  10
79
  20
-1.5
  10
87
  20
-1.5
  10
87
  20
1.5
  10
95
  20
1.5
  10
95
  20
-1.5
  10
103
  20
-1.5
  10
103
  20
1.5
  10
111
  20
1.5
  10
111
  20
-1.5
  10
119
  20
-1.5
  10
119
  20
1.5
  10
127
  20
1.5
  10
127
  20
-1.5
  10
135
  20
-1.5
  10
135
  20
1.5
  10
143
  20
1.5
  10
143
  20
-1.5
  10
147
  20
-1.5
  10
150
  20
-1.5
  10
150
  20
1.5
  10
150
  20
6
  10
147
  20
6
  10
147
  20
14
  10
150
  20
14
  10
150
  20
22
  10
147
  20
22
  10
147
  20
30
  10
150
  20
30
  10
150
  20
38
  10
147
  20
38
  10
147
  20
46
  10
150
  20
46
  10
150
  20
54
  10
147
  20
54
  10
147
  20
62
  10
150
  20
62
  10
150
  20
66.5
  10
147
  20
66.5
  10
3
  20
66.5
  10
0
  20
66.5
  10
0
  20
62
  10
3
  20
62
  10
3
  20
54
  10
0
  20
54
  10
0
  20
46
  10
3
  20
46
  10
3
  20
38
  10
0
  20
38
  10
0
  20
30
  10
3
  20
30
  10
3
  20
22
  10
0
  20
22
  10
0
  20
14
  10
3
  20
14
  10
3
  20
6
  10
0
  20
6
  10
0
  20
1.5
  10
0
  20
-1.5
  10
3
  20
-1.5
  10
7
  20
-1.5
  10
7
  20
1.5
  10
15
  20
1.5
  0
LWPOLYLINE
  5
CAD00002
  100
AcDbEntity
  3
CAD00002
  8
0
  67
0
  62
250
  100
AcDbPolyline
  90
79
  70
1
  10
168
  20
1.5
  10
168
  20
-1.5
  10
176
  20
-1.5
  10
176
  20
1.5
  10
184
  20
1.5
  10
184
  20
-1.5
  10
192
  20
-1.5
  10
192
  20
1.5
  10
200
  20
1.5
  10
200
  20
-1.5
  10
208
  20
-1.5
  10
208
  20
1.5
  10
216
  20
1.5
  10
216
  20
-1.5
  10
224
  20
-1.5
  10
224
  20
1.5
  10
232
  20
1.5
  10
232
  20
-1.5
  10
240
  20
-1.5
  10
240
  20
1.5
  10
248
  20
1.5
  10
248
  20
-1.5
  10
256
  20
-1.5
  10
256
  20
1.5
  10
264
  20
1.5
  10
264
  20
-1.5
  10
272
  20
-1.5
  10
272
  20
1.5
  10
280
  20
1.5
  10
280
  20
-1.5
  10
288
  20
-1.5
  10
288
  20
1.5
  10
296
  20
1.5
  10
296
  20
-1.5
  10
300
  20
-1.5
  10
303
  20
-1.5
  10
303
  20
1.5
  10
303
  20
12
  10
300
  20
12
  10
300
  20
20
  10
303
  20
20
  10
303
  20
28
  10
300
  20
28
  10
300
  20
36
  10
303
  20
36
  10
303
  20
44
  10
300
  20
44
  10
300
  20
52
  10
303
  20
52
  10
303
  20
60
  10
300
  20
60
  10
300
  20
68
  10
303
  20
68
  10
303
  20
78.5
  10
300
  20
78.5
  10
156
  20
78.5
  10
153
  20
78.5
  10
153
  20
68
  10
156
  20
68
  10
156
  20
60
  10
153
  20
60
  10
153
  20
52
  10
156
  20
52
  10
156
  20
44
  10
153
  20
44
  10
153
  20
36
  10
156
  20
36
  10
156
  20
28
  10
153
  20
28
  10
153
  20
20
  10
156
  20
20
  10
156
  20
12
  10
153
  20
12
  10
153
  20
1.5
  10
153
  20
-1.5
  10
156
  20
-1.5
  10
160
  20
-1.5
  10
160
  20
1.5
  10
168
  20
1.5
  0
LWPOLYLINE
  5
CAD00003
  100
AcDbEntity
  3
CAD00003
  8
0
  67
0
  62
250
  100
AcDbPolyline
  90
5
  70
1
  10
162
  20
75.5
  10
174
  20
75.5
  10
174
  20
72.5
  10
162
  20
72.5
  10
162
  20
75.5
  0
LWPOLYLINE
  5
CAD00004
  100
AcDbEntity
  3
CAD00004
  8
0
  67
0
  62
250
  100
AcDbPolyline
  90
5
  70
1
  10
186
  20
75.5
  10
198
  20
75.5
  10
198
  20
72.5
  10
186
  20
72.5
  10
186
  20
75.5
  0
LWPOLYLINE
  5
CAD00005
  100
AcDbEntity
  3
CAD00005
  8
0
  67
0
  62
250
  100
AcDbPolyline
  90
5
  70
1
  10
210
  20
75.5
  10
222
  20
75.5
  10
222
  20
72.5
  10
210
  20
72.5
  10
210
  20
75.5
  0
LWPOLYLINE
  5
CAD00006
  100
AcDbEntity
  3
CAD00006
  8
0
  67
0
  62
250
  100
AcDbPolyline
  90
5
  70
1
  10
234
  20
75.5
  10
246
  20
75.5
  10
246
  20
72.5
  10
234
  20
72.5
  10
234
  20
75.5
  0
LWPOLYLINE
  5
CAD00007
  100
AcDbEntity
  3
CAD00007
  8
0
  67
0
  62
250
  100
AcDbPolyline
  90
5
  70
1
  10
258
  20
75.5
  10
270
  20
75.5
  10
270
  20
72.5
  10
258
  20
72.5
  10
258
  20
75.5
  0
LWPOLYLINE
  5
CAD00008
  100
AcDbEntity
  3
CAD00008
  8
0
  67
0
  62
250
  100
AcDbPolyline
  90
5
  70
1
  10
282
  20
75.5
  10
294
  20
75.5
  10
294
  20
72.5
  10
282
  20
72.5
  10
282
  20
75.5
  0
LWPOLYLINE
  5
CAD00009
  100
AcDbEntity
  3
CAD00009
  8
0
  67
0
  62
250
  100
AcDbPolyline
  90
64
  70
1
  10
320
  20
1.5
  10
320
  20
-1.5
  10
328
  20
-1.5
  10
328
  20
1.5
  10
336
  20
1.5
  10
336
  20
-1.5
  10
344
  20
-1.5
  10
344
  20
1.5
  10
352
  20
1.5
  10
352
  20
-1.5
  10
360
  20
-1.5
  10
360
  20
1.5
  10
368
  20
1.5
  10
368
  20
-1.5
  10
376
  20
-1.5
  10
376
  20
1.5
  10
384
  20
1.5
  10
384
  20
-1.5
  10
392
  20
-1.5
  10
392
  20
1.5
  10
400
  20
1.5
  10
400
  20
-1.5
  10
403
  20
-1.5
  10
403
  20
1.5
  10
403
  20
12
  10
406
  20
12
  10
406
  20
20
  10
403
  20
20
  10
403
  20
28
  10
406
  20
28
  10
406
  20
36
  10
403
  20
36
  10
403
  20
44
  10
406
  20
44
  10
406
  20
52
  10
403
  20
52
  10
403
  20
60
  10
406
  20
60
  10
406
  20
68
  10
403
  20
68
  10
403
  20
78.5
  10
309
  20
78.5
  10
309
  20
66.5
  10
309
  20
62
  10
306
  20
62
  10
306
  20
54
  10
309
  20
54
  10
309
  20
46
  10
306
  20
46
  10
306
  20
38
  10
309
  20
38
  10
309
  20
30
  10
306
  20
30
  10
306
  20
22
  10
309
  20
22
  10
309
  20
14
  10
306
  20
14
  10
306
  20
6
  10
309
  20
6
  10
309
  20
1.5
  10
309
  20
-1.5
  10
312
  20
-1.5
  10
312
  20
1.5
  10
320
  20
1.5
  0
LWPOLYLINE
  5
CAD0000A
  100
AcDbEntity
  3
CAD0000A
  8
0
  67
0
  62
250
  100
AcDbPolyline
  90
5
  70
1
  10
314
  20
75.5
  10
326
  20
75.5
  10
326
  20
72.5
  10
314
  20
72.5
  10
314
  20
75.5
  0
LWPOLYLINE
  5
CAD0000B
  100
AcDbEntity
  3
CAD0000B
  8
0
  67
0
  62
250
  100
AcDbPolyline
  90
5
  70
1
  10
338
  20
75.5
  10
350
  20
75.5
  10
350
  20
72.5
  10
338
  20
72.5
  10
338
  20
75.5
  0
LWPOLYLINE
  5
CAD0000C
  100
AcDbEntity
  3
CAD0000C
  8
0
  67
0
  62
250
  100
AcDbPolyline
  90
5
  70
1
  10
362
  20
75.5
  10
374
  20
75.5
  10
374
  20
72.5
  10
362
  20
72.5
  10
362
  20
75.5
  0
LWPOLYLINE
  5
CAD0000D
  100
AcDbEntity
  3
CAD0000D
  8
0
  67
0
  62
250
  100
AcDbPolyline
  90
5
  70
1
  10
386
  20
75.5
  10
398
  20
75.5
  10
398
  20
72.5
  10
386
  20
72.5
  10
386
  20
75.5
  0
LWPOLYLINE
  5
CAD0000E
  100
AcDbEntity
  3
CAD0000E
  8
0
  67
0
  62
250
  100
AcDbPolyline
  90
5
  70
1
  10
314
  20
69.5
  10
326
  20
69.5
  10
326
  20
66.5
  10
314
  20
66.5
  10
314
  20
69.5
  0
LWPOLYLINE
  5
CAD0000F
  100
AcDbEntity
  3
CAD0000F
  8
0
  67
0
  62
250
  100
AcDbPolyline
  90
5
  70
1
  10
338
  20
69.5
  10
350
  20
69.5
  10
350
  20
66.5
  10
338
  20
66.5
  10
338
  20
69.5
  0
LWPOLYLINE
  5
CAD00010
  100
AcDbEntity
  3
CAD00010
  8
0
  67
0
  62
250
  100
AcDbPolyline
  90
5
  70
1
  10
362
  20
69.5
  10
374
  20
69.5
  10
374
  20
66.5
  10
362
  20
66.5
  10
362
  20
69.5
  0
LWPOLYLINE
  5
CAD00011
  100
AcDbEntity
  3
CAD00011
  8
0
  67
0
  62
250
  100
AcDbPolyline
  90
5
  70
1
  10
386
  20
69.5
  10
398
  20
69.5
  10
398
  20
66.5
  10
386
  20
66.5
  10
386
  20
69.5
  0
LWPOLYLINE
  5
CAD00012
  100
AcDbEntity
  3
CAD00012
  8
0
  67
0
  62
250
  100
AcDbPolyline
  90
64
  70
1
  10
423
  20
1.5
  10
423
  20
-1.5
  10
431
  20
-1.5
  10
431
  20
1.5
  10
439
  20
1.5
  10
439
  20
-1.5
  10
447
  20
-1.5
  10
447
  20
1.5
  10
455
  20
1.5
  10
455
  20
-1.5
  10
463
  20
-1.5
  10
463
  20
1.5
  10
471
  20
1.5
  10
471
  20
-1.5
  10
479
  20
-1.5
  10
479
  20
1.5
  10
487
  20
1.5
  10
487
  20
-1.5
  10
495
  20
-1.5
  10
495
  20
1.5
  10
503
  20
1.5
  10
503
  20
-1.5
  10
506
  20
-1.5
  10
506
  20
1.5
  10
506
  20
12
  10
509
  20
12
  10
509
  20
20
  10
506
  20
20
  10
506
  20
28
  10
509
  20
28
  10
509
  20
36
  10
506
  20
36
  10
506
  20
44
  10
509
  20
44
  10
509
  20
52
  10
506
  20
52
  10
506
  20
60
  10
509
  20
60
  10
509
  20
68
  10
506
  20
68
  10
506
  20
78.5
  10
412
  20
78.5
  10
412
  20
66.5
  10
412
  20
62
  10
409
  20
62
  10
409
  20
54
  10
412
  20
54
  10
412
  20
46
  10
409
  20
46
  10
409
  20
38
  10
412
  20
38
  10
412
  20
30
  10
409
  20
30
  10
409
  20
22
  10
412
  20
22
  10
412
  20
14
  10
409
  20
14
  10
409
  20
6
  10
412
  20
6
  10
412
  20
1.5
  10
412
  20
-1.5
  10
415
  20
-1.5
  10
415
  20
1.5
  10
423
  20
1.5
  0
LWPOLYLINE
  5
CAD00013
  100
AcDbEntity
  3
CAD00013
  8
0
  67
0
  62
250
  100
AcDbPolyline
  90
5
  70
1
  10
417
  20
75.5
  10
429
  20
75.5
  10
429
  20
72.5
  10
417
  20
72.5
  10
417
  20
75.5
  0
LWPOLYLINE
  5
CAD00014
  100
AcDbEntity
  3
CAD00014
  8
0
  67
0
  62
250
  100
AcDbPolyline
  90
5
  70
1
  10
441
  20
75.5
  10
453
  20
75.5
  10
453
  20
72.5
  10
441
  20
72.5
  10
441
  20
75.5
  0
LWPOLYLINE
  5
CAD00015
  100
AcDbEntity
  3
CAD00015
  8
0
  67
0
  62
250
  100
AcDbPolyline
  90
5
  70
1
  10
465
  20
75.5
  10
477
  20
75.5
  10
477
  20
72.5
  10
465
  20
72.5
  10
465
  20
75.5
  0
LWPOLYLINE
  5
CAD00016
  100
AcDbEntity
  3
CAD00016
  8
0
  67
0
  62
250
  100
AcDbPolyline
  90
5
  70
1
  10
489
  20
75.5
  10
501
  20
75.5
  10
501
  20
72.5
  10
489
  20
72.5
  10
489
  20
75.5
  0
LWPOLYLINE
  5
CAD00017
  100
AcDbEntity
  3
CAD00017
  8
0
  67
0
  62
250
  100
AcDbPolyline
  90
5
  70
1
  10
417
  20
69.5
  10
429
  20
69.5
  10
429
  20
66.5
  10
417
  20
66.5
  10
417
  20
69.5
  0
LWPOLYLINE
  5
CAD00018
  100
AcDbEntity
  3
CAD00018
  8
0
  67
0
  62
250
  100
AcDbPolyline
  90
5
  70
1
  10
441
  20
69.5
  10
453
  20
69.5
  10
453
  20
66.5
  10
441
  20
66.5
  10
441
  20
69.5
  0
LWPOLYLINE
  5
CAD00019
  100
AcDbEntity
  3
CAD00019
  8
0
  67
0
  62
250
  100
AcDbPolyline
  90
5
  70
1
  10
465
  20
69.5
  10
477
  20
69.5
  10
477
  20
66.5
  10
465
  20
66.5
  10
465
  20
69.5
  0
LWPOLYLINE
  5
CAD0001A
  100
AcDbEntity
  3
CAD0001A
  8
0
  67
0
  62
250
  100
AcDbPolyline
  90
5
  70
1
  10
489
  20
69.5
  10
501
  20
69.5
  10
501
  20
66.5
  10
489
  20
66.5
  10
489
  20
69.5
  0
LWPOLYLINE
  5
CAD0001B
  100
AcDbEntity
  3
CAD0001B
  8
0
  67
0
  62
250
  100
AcDbPolyline
  90
125
  70
1
  10
535
  20
3
  10
535
  20
0
  10
543
  20
0
  10
543
  20
3
  10
551
  20
3
  10
551
  20
0
  10
559
  20
0
  10
559
  20
3
  10
567
  20
3
  10
567
  20
0
  10
575
  20
0
  10
575
  20
3
  10
583
  20
3
  10
583
  20
0
  10
591
  20
0
  10
591
  20
3
  10
599
  20
3
  10
599
  20
0
  10
607
  20
0
  10
607
  20
3
  10
615
  20
3
  10
615
  20
0
  10
623
  20
0
  10
623
  20
3
  10
631
  20
3
  10
631
  20
0
  10
639
  20
0
  10
639
  20
3
  10
647
  20
3
  10
647
  20
0
  10
655
  20
0
  10
655
  20
3
  10
659
  20
3
  10
659
  20
6
  10
662
  20
6
  10
662
  20
14
  10
659
  20
14
  10
659
  20
22
  10
662
  20
22
  10
662
  20
30
  10
659
  20
30
  10
659
  20
38
  10
662
  20
38
  10
662
  20
46
  10
659
  20
46
  10
659
  20
54
  10
662
  20
54
  10
662
  20
62
  10
659
  20
62
  10
659
  20
70
  10
662
  20
70
  10
662
  20
78
  10
659
  20
78
  10
659
  20
86
  10
662
  20
86
  10
662
  20
94
  10
659
  20
94
  10
659
  20
97
  10
655
  20
97
  10
655
  20
100
  10
647
  20
100
  10
647
  20
97
  10
639
  20
97
  10
639
  20
100
  10
631
  20
100
  10
631
  20
97
  10
623
  20
97
  10
623
  20
100
  10
615
  20
100
  10
615
  20
97
  10
607
  20
97
  10
607
  20
100
  10
599
  20
100
  10
599
  20
97
  10
591
  20
97
  10
591
  20
100
  10
583
  20
100
  10
583
  20
97
  10
575
  20
97
  10
575
  20
100
  10
567
  20
100
  10
567
  20
97
  10
559
  20
97
  10
559
  20
100
  10
551
  20
100
  10
551
  20
97
  10
543
  20
97
  10
543
  20
100
  10
535
  20
100
  10
535
  20
97
  10
527
  20
97
  10
527
  20
100
  10
519
  20
100
  10
519
  20
97
  10
515
  20
97
  10
515
  20
94
  10
512
  20
94
  10
512
  20
86
  10
515
  20
86
  10
515
  20
78
  10
512
  20
78
  10
512
  20
70
  10
515
  20
70
  10
515
  20
62
  10
512
  20
62
  10
512
  20
54
  10
515
  20
54
  10
515
  20
46
  10
512
  20
46
  10
512
  20
38
  10
515
  20
38
  10
515
  20
30
  10
512
  20
30
  10
512
  20
22
  10
515
  20
22
  10
515
  20
14
  10
512
  20
14
  10
512
  20
6
  10
515
  20
6
  10
515
  20
3
  10
519
  20
3
  10
519
  20
0
  10
527
  20
0
  10
527
  20
3
  10
535
  20
3
  0
LWPOLYLINE
  5
CAD0001C
  100
AcDbEntity
  3
CAD0001C
  8
0
  67
0
  62
250
  100
AcDbPolyline
  90
21
  70
1
  10
6
  20
110.5
  10
0
  20
104.5
  10
5
  20
104.5
  10
5
  20
101.5
  10
17
  20
101.5
  10
17
  20
104.5
  10
29
  20
104.5
  10
29
  20
101.5
  10
41
  20
101.5
  10
41
  20
104.5
  10
53
  20
104.5
  10
53
  20
101.5
  10
65
  20
101.5
  10
65
  20
104.5
  10
77
  20
104.5
  10
77
  20
101.5
  10
89
  20
101.5
  10
89
  20
104.5
  10
94
  20
104.5
  10
88
  20
110.5
  10
6
  20
110.5
  0
LWPOLYLINE
  5
CAD0001D
  100
AcDbEntity
  3
CAD0001D
  8
0
  67
0
  62
250
  100
AcDbPolyline
  90
21
  70
1
  10
103
  20
110.5
  10
97
  20
104.5
  10
102
  20
104.5
  10
102
  20
101.5
  10
114
  20
101.5
  10
114
  20
104.5
  10
126
  20
104.5
  10
126
  20
101.5
  10
138
  20
101.5
  10
138
  20
104.5
  10
150
  20
104.5
  10
150
  20
101.5
  10
162
  20
101.5
  10
162
  20
104.5
  10
174
  20
104.5
  10
174
  20
101.5
  10
186
  20
101.5
  10
186
  20
104.5
  10
191
  20
104.5
  10
185
  20
110.5
  10
103
  20
110.5
  0
LWPOLYLINE
  5
CAD0001E
  100
AcDbEntity
  3
CAD0001E
  8
0
  67
0
  62
250
  100
AcDbPolyline
  90
21
  70
1
  10
200
  20
110.5
  10
194
  20
104.5
  10
199
  20
104.5
  10
199
  20
101.5
  10
211
  20
101.5
  10
211
  20
104.5
  10
223
  20
104.5
  10
223
  20
101.5
  10
235
  20
101.5
  10
235
  20
104.5
  10
247
  20
104.5
  10
247
  20
101.5
  10
259
  20
101.5
  10
259
  20
104.5
  10
271
  20
104.5
  10
271
  20
101.5
  10
283
  20
101.5
  10
283
  20
104.5
  10
288
  20
104.5
  10
282
  20
110.5
  10
200
  20
110.5
  0
LWPOLYLINE
  5
CAD0001F
  100
AcDbEntity
  3
CAD0001F
  8
0
  67
0
  62
250
  100
AcDbPolyline
  90
21
  70
1
  10
297
  20
110.5
  10
291
  20
104.5
  10
296
  20
104.5
  10
296
  20
101.5
  10
308
  20
101.5
  10
308
  20
104.5
  10
320
  20
104.5
  10
320
  20
101.5
  10
332
  20
101.5
  10
332
  20
104.5
  10
344
  20
104.5
  10
344
  20
101.5
  10
356
  20
101.5
  10
356
  20
104.5
  10
368
  20
104.5
  10
368
  20
101.5
  10
380
  20
101.5
  10
380
  20
104.5
  10
385
  20
104.5
  10
379
  20
110.5
  10
297
  20
110.5
  0
LWPOLYLINE
  5
CAD00020
  100
AcDbEntity
  3
CAD00020
  8
0
  67
0
  62
250
  100
AcDbPolyline
  90
29
  70
1
  10
394
  20
110.5
  10
388
  20
104.5
  10
394
  20
104.5
  10
394
  20
101.5
  10
406
  20
101.5
  10
406
  20
104.5
  10
418
  20
104.5
  10
418
  20
101.5
  10
430
  20
101.5
  10
430
  20
104.5
  10
442
  20
104.5
  10
442
  20
101.5
  10
454
  20
101.5
  10
454
  20
104.5
  10
466
  20
104.5
  10
466
  20
101.5
  10
478
  20
101.5
  10
478
  20
104.5
  10
490
  20
104.5
  10
490
  20
101.5
  10
502
  20
101.5
  10
502
  20
104.5
  10
514
  20
104.5
  10
514
  20
101.5
  10
526
  20
101.5
  10
526
  20
104.5
  10
532
  20
104.5
  10
526
  20
110.5
  10
394
  20
110.5
  0
LWPOLYLINE
  5
CAD00021
  100
AcDbEntity
  3
CAD00021
  8
0
  67
0
  62
250
  100
AcDbPolyline
  90
29
  70
1
  10
6
  20
122.5
  10
0
  20
116.5
  10
6
  20
116.5
  10
6
  20
113.5
  10
18
  20
113.5
  10
18
  20
116.5
  10
30
  20
116.5
  10
30
  20
113.5
  10
42
  20
113.5
  10
42
  20
116.5
  10
54
  20
116.5
  10
54
  20
113.5
  10
66
  20
113.5
  10
66
  20
116.5
  10
78
  20
116.5
  10
78
  20
113.5
  10
90
  20
113.5
  10
90
  20
116.5
  10
102
  20
116.5
  10
102
  20
113.5
  10
114
  20
113.5
  10
114
  20
116.5
  10
126
  20
116.5
  10
126
  20
113.5
  10
138
  20
113.5
  10
138
  20
116.5
  10
144
  20
116.5
  10
138
  20
122.5
  10
6
  20
122.5
  0
LWPOLYLINE
  5
CAD00022
  100
AcDbEntity
  3
CAD00022
  8
0
  67
0
  62
250
  100
AcDbPolyline
  90
29
  70
1
  10
273
  20
213.5
  10
273
  20
210.5
  10
261
  20
210.5
  10
261
  20
213.5
  10
249
  20
213.5
  10
249
  20
210.5
  10
237
  20
210.5
  10
237
  20
213.5
  10
225
  20
213.5
  10
225
  20
210.5
  10
213
  20
210.5
  10
213
  20
213.5
  10
201
  20
213.5
  10
201
  20
210.5
  10
189
  20
210.5
  10
189
  20
213.5
  10
177
  20
213.5
  10
177
  20
210.5
  10
165
  20
210.5
  10
165
  20
213.5
  10
153
  20
213.5
  10
153
  20
210.5
  10
147
  20
210.5
  10
147
  20
116.5
  10
291
  20
116.5
  10
291
  20
210.5
  10
285
  20
210.5
  10
285
  20
213.5
  10
273
  20
213.5
  0
LWPOLYLINE
  5
CAD00023
  100
AcDbEntity
  3
CAD00023
  8
0
  67
0
  62
250
  100
AcDbPolyline
  90
5
  70
1
  10
294
  20
127
  10
294
  20
115
  10
444
  20
115
  10
444
  20
127
  10
294
  20
127
  0
LWPOLYLINE
  5
CAD00024
  100
AcDbEntity
  3
CAD00024
  8
0
  67
0
  62
250
  100
AcDbPolyline
  90
5
  70
1
  10
303
  20
124
  10
315
  20
124
  10
315
  20
118
  10
303
  20
118
  10
303
  20
124
  0
LWPOLYLINE
  5
CAD00025
  100
AcDbEntity
  3
CAD00025
  8
0
  67
0
  62
250
  100
AcDbPolyline
  90
5
  70
1
  10
327
  20
124
  10
339
  20
124
  10
339
  20
118
  10
327
  20
118
  10
327
  20
124
  0
LWPOLYLINE
  5
CAD00026
  100
AcDbEntity
  3
CAD00026
  8
0
  67
0
  62
250
  100
AcDbPolyline
  90
5
  70
1
  10
351
  20
124
  10
363
  20
124
  10
363
  20
118
  10
351
  20
118
  10
351
  20
124
  0
LWPOLYLINE
  5
CAD00027
  100
AcDbEntity
  3
CAD00027
  8
0
  67
0
  62
250
  100
AcDbPolyline
  90
5
  70
1
  10
375
  20
124
  10
387
  20
124
  10
387
  20
118
  10
375
  20
118
  10
375
  20
124
  0
LWPOLYLINE
  5
CAD00028
  100
AcDbEntity
  3
CAD00028
  8
0
  67
0
  62
250
  100
AcDbPolyline
  90
5
  70
1
  10
399
  20
124
  10
411
  20
124
  10
411
  20
118
  10
399
  20
118
  10
399
  20
124
  0
LWPOLYLINE
  5
CAD00029
  100
AcDbEntity
  3
CAD00029
  8
0
  67
0
  62
250
  100
AcDbPolyline
  90
5
  70
1
  10
423
  20
124
  10
435
  20
124
  10
435
  20
118
  10
423
  20
118
  10
423
  20
124
  0
ENDSEC
  0
SECTION
  2
OBJECTS
  0
DICTIONARY
  5
C
330
0
100
AcDbDictionary
281
1
  3
ACAD_COLOR
350
524
  3
ACAD_GROUP
350
525
  3
ACAD_LAYOUT
350
526
  3
ACAD_MATERIAL
350
527
  3
ACAD_MLEADERSTYLE
350
528
  3
ACAD_MLINESTYLE
350
529
  3
ACAD_PLOTSETTINGS
350
52A
  3
ACAD_PLOTSTYLENAME
350
52C
  3
ACAD_SCALELIST
350
52D
  3
ACAD_TABLESTYLE
350
52E
  3
ACAD_VISUALSTYLE
350
52F
  0
DICTIONARY
  5
524
330
C
100
AcDbDictionary
281
1
  0
DICTIONARY
  5
525
330
C
100
AcDbDictionary
281
1
  0
DICTIONARY
  5
526
330
C
100
AcDbDictionary
281
1
  3
Model
350
530
  3
Layout1
350
531
  0
DICTIONARY
  5
527
330
C
100
AcDbDictionary
281
1
  0
DICTIONARY
  5
528
330
C
100
AcDbDictionary
281
1
  0
DICTIONARY
  5
529
330
C
100
AcDbDictionary
281
1
  0
DICTIONARY
  5
52A
330
C
100
AcDbDictionary
281
1
  0
ACDBPLACEHOLDER
  5
52B
330
52C
  0
ACDBDICTIONARYWDFLT
  5
52C
330
C
100
AcDbDictionary
281
1
  3
Normal
350
52B
100
AcDbDictionaryWithDefault
340
52B
  0
DICTIONARY
  5
52D
330
C
100
AcDbDictionary
281
1
  0
DICTIONARY
  5
52E
330
C
100
AcDbDictionary
281
1
  0
DICTIONARY
  5
52F
330
C
100
AcDbDictionary
281
1
  0
LAYOUT
  5
530
330
526
100
AcDbPlotSettings
  1

  2
DWFx ePlot (XPS Compatible).pc3
  4
ANSI_A_(8.50_x_11.00_Inches)
  6

 40
5.8
 41
17.8
 42
5.8
 43
17.8
 44
215.9
 45
279.4
 46
0.0
 47
0.0
 48
0.0
 49
0.0
140
0.0
141
0.0
142
1.0
143
14.53
 70
11952
 72
0
 73
1
 74
0
  7

 75
0
147
0.069
148
114.98
149
300.29
100
AcDbLayout
  1
Model
 70
1
 71
0
 10
0.0
 20
0.0
 11
12.0
 21
9.0
 12
0.0
 22
0.0
 32
0.0
 14
0.0
 24
0.0
 34
0.0
 15
0.0
 25
0.0
 35
0.0
146
0.0
 13
0.0
 23
0.0
 33
0.0
 16
1.0
 26
0.0
 36
0.0
 17
0.0
 27
1.0
 37
0.0
 76
0
330
1F
  0
LAYOUT
  5
531
330
526
100
AcDbPlotSettings
  1

  2
DWFx ePlot (XPS Compatible).pc3
  4
ANSI_A_(8.50_x_11.00_Inches)
  6

 40
5.8
 41
17.8
 42
5.8
 43
17.8
 44
215.9
 45
279.4
 46
0.0
 47
0.0
 48
0.0
 49
0.0
140
0.0
141
0.0
142
1.0
143
1.0
 70
688
 72
0
 73
1
 74
5
  7
acad.ctb
 75
16
147
1.0
148
0.0
149
0.0
100
AcDbLayout
  1
Layout1
 70
1
 71
1
 10
-0.7
 20
-0.23
 11
10.3
 21
8.27
 12
0.0
 22
0.0
 32
0.0
 14
0.63
 24
0.8
 34
0.0
 15
9.0
 25
7.2
 35
0.0
146
0.0
 13
0.0
 23
0.0
 33
0.0
 16
1.0
 26
0.0
 36
0.0
 17
0.0
 27
1.0
 37
0.0
 76
0
330
58
  0
ENDSEC
  0
EOF
